<?xml version="1.0" encoding="utf-8"?>
<!-- Generator: Adobe Illustrator 23.0.3, SVG Export Plug-In . SVG Version: 6.00 Build 0)  -->
<svg version="1.1" id="圖層_1" xmlns="http://www.w3.org/2000/svg" xmlns:xlink="http://www.w3.org/1999/xlink" x="0px" y="0px"
	 viewBox="0 0 780 1020" style="enable-background:new 0 0 780 1020;" xml:space="preserve">
<style type="text/css">
	.st0{fill:#F2A642;}
</style>
<g>
	<path class="st0" d="M411.5,161.9c1.6,2.3,2.8,3.8,3.9,5.4c8.7,12,4.6,26.7-8.8,32.6c-1.2,0.5-2.3,2.6-2.5,4
		c-1.4,12.1-2,24.2-3.9,36.1c-7.2,45.2-23.3,86.5-56.9,119c-25.4,24.6-56,39.4-90.9,45.1c-1.4,0.2-2.8,0.5-4.2,0.7
		c-1.4,0.2-2.8,0.3-4.9,0.5c3.3,8.9,6.5,17.4,9.8,26.4c7.3-1.4,14.4-2.8,21.5-4.2c0.2-0.1,0.3-0.1,0.4-0.1c11.1-2.5,11.5-2.2,16.6,8
		c1.3,2.7,2.7,5.3,3.9,8c1.7,3.9,0.4,7.7-3.2,9.3c-3.4,1.6-6.9,0.4-9-3.2c-1.5-2.7-2.9-5.5-4.5-8.7c-8.8,1.7-17.7,3.5-26.6,5.3
		c-11.6,2.3-23.1,4.7-34.7,7c-4.7,0.9-8.4-1.2-9.2-5.2c-0.8-4.1,1.5-7.2,6.4-8.2c8.1-1.7,16.2-3.4,24.8-5.2
		c-3.5-9.2-6.7-18.3-10.3-27.2c-0.4-0.9-2.5-1.5-3.8-1.5c-17.1-1.2-33.8-4.5-49.6-11.2c-29.1-12.2-51.1-32.5-68.5-58.4
		c-14.4-21.5-24.5-44.9-32-69.6c-0.8-2.8-2.1-4.3-5-5.4c-16.3-5.9-22.4-16.6-19.8-33.9c0.2-1.2-0.3-2.9-1-3.7
		c-12.9-13.8-17-30.8-18.1-48.9c-0.4-6.4,0.1-13,0.7-19.4c0.5-6,4.4-8.3,10.2-6.1c16.2,6,32.4,12.2,48.6,18.1
		c2.5,0.9,5.2,1.4,7.8,1.4c63.3,0.1,126.7,0,190,0.2c4.3,0,6.3-1.5,7.6-5.3c3.6-11,7.2-21.9,11.1-32.8c3.5-9.7,8-19,14.9-26.8
		c2.8-3.2,5.7-6.5,9.3-8.5c4.7-2.6,5.6-6,5.5-10.9c-0.4-10-0.2-20-0.1-30c0-5.4,2.3-7.7,7.7-7.8c4.1-0.1,8.2,0,12.3,0
		c8,0,14.1,3.6,18,10.5c1.1,2,2.2,3,4.7,3.2c7,0.6,12.3,4.4,15.9,10.5c0.8,1.3,2.5,2.6,3.9,2.8c13.2,1.7,21.3,14.4,17.2,27
		c-1.9,5.9-5.5,10.7-10.5,14.5c-1.1,0.9-2.1,2.6-2.1,3.9c0,0.7,2,1.9,3.3,2.2c17,3.7,27,14.4,30.8,31c1.4,6-1.5,9.5-7.7,9.6
		C424.4,161.9,418.5,161.9,411.5,161.9z M89.6,265.4c0,0.9-0.1,1.3,0,1.6c8.7,26.7,20.2,52,38.2,73.9
		c31.6,38.3,72.1,56.3,121.7,49.4c41.4-5.8,75.3-26.1,100.5-59.8c28.3-37.9,37.8-82,40.1-128.2c0.1-1.2-1.3-2.9-2.5-3.5
		c-12.4-6.4-15.9-20.2-7.6-31.4c3-4,5.5-7.5,4.5-13.3c-1.2-7.3-0.2-14.9-0.4-22.4c-0.1-5,0.2-9.4,7.2-11c-3.2-4.5-5.3-8.9-8.6-11.9
		c-13.3-12.1-38.3-10.4-49.6,3.4c-4.3,5.3-8.1,11.3-10.6,17.7c-5.6,14-10.3,28.4-15.4,43c3.5,1.2,6.8,2.2,10.1,3.5
		c29.1,10.7,38.4,33.4,25.1,61.3c-7.3,15.4-17.9,28.3-29.9,40.2c-32.9,32.5-71.9,44.7-117.3,33.8c-27.9-6.7-52.3-20.5-74.5-38.5
		c-1.5-1.2-3.1-2.9-4.9-3.3C107.2,268.2,98.5,266.9,89.6,265.4z M130,263c19.2,15.1,39.5,26.8,62.6,33.6c18.1,5.4,36.5,6.9,55.1,2.9
		c24.1-5.3,43.3-18.4,59.8-36.2c10.2-11,19.6-22.6,24.9-36.9c5.7-15.6,1.5-26.4-13.2-34.2c-10.7-5.8-22.4-8.4-34.4-9
		c-14.9-0.8-29.9-0.4-44.8-1.1c-7.2-0.3-13.1,1.6-18.9,5.5c-20.6,13.2-39.3,28.8-57.6,45C152.1,242.5,141.2,252.7,130,263z
		 M203.4,182.5c-35.3,0-69.7,0-104.1,0c-2.9,18.9,9.3,57.8,22,70.1C147.1,227.9,173.6,203.9,203.4,182.5z M44.3,164.6
		c0.7,7.8,1,14.6,2,21.3c1.9,11.3,5.8,21.8,14.7,29.7c5.4,4.7,5.6,5.3,3.3,12.4c-2.9,9.1-0.7,16.4,7.8,19.1c10.4,3.3,21.3,5,32,7.4
		c0.2-0.4,0.3-0.8,0.5-1.2c-13.2-22.6-21-46.6-19.2-73.2C71.9,174.9,58.7,170,44.3,164.6z M397.4,104.1c5-3.4,7.6-8.4,6.2-12.2
		c-1.9-5.1-6.4-4.7-10.7-4.6c-0.3,0-0.6,0-0.9,0c-5.1-0.1-6.9-1.7-7.9-6.8c-0.8-4.5-3.1-6.5-7.8-6.7c-1.5-0.1-3.1,0-4.6,0
		c-5.1-0.1-7-1.7-7.9-6.8c-0.7-4-2.9-6.3-6.9-6.7c-2-0.2-4.1-0.1-6.4-0.1c0,9.2,0,18,0,27.2C368.4,86.7,385.2,88.7,397.4,104.1z
		 M421.8,148.2c-3.9-9.3-13.9-14.8-23.8-13.3c0,4.4,0,8.8,0,13.3C406.1,148.2,413.8,148.2,421.8,148.2z M397.7,166.6
		c-2.5,3.4-4.7,6.2-6.8,9.2c-2.5,3.6-2.1,6.9,0.7,9.4c3,2.6,9.3,3,12.3,0.7c2.6-2,3.2-6.2,1-9.6
		C402.8,173.1,400.4,170.2,397.7,166.6z"/>
	<path class="st0" d="M370.6,128.2c-0.1,3.9-3.2,6.7-7.2,6.5c-3.7-0.2-6.4-3.2-6.3-6.9c0.1-3.9,3.2-6.7,7.2-6.5
		C368,121.5,370.7,124.4,370.6,128.2z"/>
</g>
<g>
	<path class="st0" d="M717.2,666.2c1.6,2.3,2.8,3.8,3.9,5.4c8.7,12,4.6,26.7-8.8,32.6c-1.2,0.5-2.3,2.6-2.5,4
		c-1.4,12.1-2,24.2-3.9,36.1c-7.2,45.2-23.3,86.5-56.9,119c-25.4,24.6-56,39.4-90.9,45.1c-1.4,0.2-2.8,0.5-4.2,0.7
		c-1.4,0.2-2.8,0.3-4.9,0.5c3.3,8.9,6.5,17.4,9.8,26.4c7.3-1.4,14.4-2.8,21.5-4.2c0.2-0.1,0.3-0.1,0.4-0.1c11.1-2.5,11.5-2.2,16.6,8
		c1.3,2.7,2.7,5.3,3.9,8c1.7,3.9,0.4,7.7-3.2,9.3c-3.4,1.6-6.9,0.4-9-3.2c-1.5-2.7-2.9-5.5-4.5-8.7c-8.8,1.7-17.7,3.5-26.6,5.3
		c-11.6,2.3-23.1,4.7-34.7,7c-4.7,0.9-8.4-1.2-9.2-5.2c-0.8-4.1,1.5-7.2,6.4-8.2c8.1-1.7,16.2-3.4,24.8-5.2
		c-3.5-9.2-6.7-18.3-10.3-27.2c-0.4-0.9-2.5-1.5-3.8-1.5c-17.1-1.2-33.8-4.5-49.6-11.2c-29.1-12.2-51.1-32.5-68.5-58.4
		c-14.4-21.5-24.5-44.9-32-69.6c-0.8-2.8-2.1-4.3-5-5.4c-16.3-5.9-22.4-16.6-19.8-33.9c0.2-1.2-0.3-2.9-1-3.7
		c-12.9-13.8-17-30.8-18.1-48.9c-0.4-6.4,0.1-13,0.7-19.4c0.5-6,4.4-8.3,10.2-6.1c16.2,6,32.4,12.2,48.6,18.1
		c2.5,0.9,5.2,1.4,7.8,1.4c63.3,0.1,126.7,0,190,0.2c4.3,0,6.3-1.5,7.6-5.3c3.6-11,7.2-21.9,11.1-32.8c3.5-9.7,8-19,14.9-26.8
		c2.8-3.2,5.7-6.5,9.3-8.5c4.7-2.6,5.6-6,5.5-10.9c-0.4-10-0.2-20-0.1-30c0-5.4,2.3-7.7,7.7-7.8c4.1-0.1,8.2,0,12.3,0
		c8,0,14.1,3.6,18,10.5c1.1,2,2.2,3,4.7,3.2c7,0.6,12.3,4.4,15.9,10.5c0.8,1.3,2.5,2.6,3.9,2.8c13.2,1.7,21.3,14.4,17.2,27
		c-1.9,5.9-5.5,10.7-10.5,14.5c-1.1,0.9-2.1,2.6-2.1,3.9c0,0.7,2,1.9,3.3,2.2c17,3.7,27,14.4,30.8,31c1.4,6-1.5,9.5-7.7,9.6
		C730.1,666.2,724.2,666.2,717.2,666.2z M395.3,769.8c0,0.9-0.1,1.3,0,1.6c8.7,26.7,20.2,52,38.2,73.9
		c31.6,38.3,72.1,56.3,121.7,49.4c41.4-5.8,75.3-26.1,100.5-59.8c28.3-37.9,37.8-82,40.1-128.2c0.1-1.2-1.3-2.9-2.5-3.5
		c-12.4-6.4-15.9-20.2-7.6-31.4c3-4,5.5-7.5,4.5-13.3c-1.2-7.3-0.2-14.9-0.4-22.4c-0.1-5,0.2-9.4,7.2-11c-3.2-4.5-5.3-8.9-8.6-11.9
		c-13.3-12.1-38.3-10.4-49.6,3.4c-4.3,5.3-8.1,11.3-10.6,17.7c-5.6,14-10.3,28.4-15.4,43c3.5,1.2,6.8,2.2,10.1,3.5
		C652,691.4,661.3,714,648,742c-7.3,15.4-17.9,28.3-29.9,40.2c-32.9,32.5-71.9,44.7-117.3,33.8c-27.9-6.7-52.3-20.5-74.5-38.5
		c-1.5-1.2-3.1-2.9-4.9-3.3C412.9,772.5,404.2,771.2,395.3,769.8z M435.7,767.3c19.2,15.1,39.5,26.8,62.6,33.6
		c18.1,5.4,36.5,6.9,55.1,2.9c24.1-5.3,43.3-18.4,59.8-36.2c10.2-11,19.6-22.6,24.9-36.9c5.7-15.6,1.5-26.4-13.2-34.2
		c-10.7-5.8-22.4-8.4-34.4-9c-14.9-0.8-29.9-0.4-44.8-1.1c-7.2-0.3-13.1,1.6-18.9,5.5c-20.6,13.2-39.3,28.8-57.6,45
		C457.8,746.8,446.9,757,435.7,767.3z M509.1,686.8c-35.3,0-69.7,0-104.1,0c-2.9,18.9,9.3,57.8,22,70.1
		C452.8,732.2,479.3,708.2,509.1,686.8z M350,668.9c0.7,7.8,1,14.6,2,21.3c1.9,11.3,5.8,21.8,14.7,29.7c5.4,4.7,5.6,5.3,3.3,12.4
		c-2.9,9.1-0.7,16.4,7.8,19.1c10.4,3.3,21.3,5,32,7.4c0.2-0.4,0.3-0.8,0.5-1.2c-13.2-22.6-21-46.6-19.2-73.2
		C377.6,679.2,364.4,674.3,350,668.9z M703.1,608.4c5-3.4,7.6-8.4,6.2-12.2c-1.9-5.1-6.4-4.7-10.7-4.6c-0.3,0-0.6,0-0.9,0
		c-5.1-0.1-6.9-1.7-7.9-6.8c-0.8-4.5-3.1-6.5-7.8-6.7c-1.5-0.1-3.1,0-4.6,0c-5.1-0.1-7-1.7-7.9-6.8c-0.7-4-2.9-6.3-6.9-6.7
		c-2-0.2-4.1-0.1-6.4-0.1c0,9.2,0,18,0,27.2C674.1,591.1,690.9,593.1,703.1,608.4z M727.6,652.6c-3.9-9.3-13.9-14.8-23.8-13.3
		c0,4.4,0,8.8,0,13.3C711.8,652.6,719.5,652.6,727.6,652.6z M703.4,670.9c-2.5,3.4-4.7,6.2-6.8,9.2c-2.5,3.6-2.1,6.9,0.7,9.4
		c3,2.6,9.3,3,12.3,0.7c2.6-2,3.2-6.2,1-9.6C708.6,677.4,706.2,674.5,703.4,670.9z"/>
	<path class="st0" d="M676.3,632.5c-0.1,3.9-3.2,6.7-7.2,6.5c-3.7-0.2-6.4-3.2-6.3-6.9c0.1-3.9,3.2-6.7,7.2-6.5
		C673.7,625.7,676.4,628.7,676.3,632.5z"/>
</g>
<g>
	<path class="st0" d="M610.9,201c2.9,0.6,5.8,1.1,8.7,1.8c14.7,3.7,27,11.6,37.6,22.2c15.9,15.8,26.9,34.7,34.4,55.6
		c3.4,9.6,5.6,19.6,8.3,29.4c0.2,0.7,0.4,1.4,0.5,2c2-1.1,3.8-2.3,5.8-2.9c4.1-1.1,8.4,1.6,9,5.8c4.1,27.5,3.6,54.7-6.9,81
		c-13.3,33.1-37.4,54.4-72,63.2c-30.5,7.8-60.2,5.2-88.3-9.8c-24.6-13.1-40.4-33.7-49.2-59.9c-5.1-15.1-7.2-30.7-6.7-46.5
		c0.3-8.9,1.1-17.9,2.1-26.7c0.8-7.1,7.3-9.6,13-5.2c0.5,0.4,1.1,0.8,1.9,1.4c0.6-2.6,1-4.9,1.5-7.2c6.3-27.8,17.5-53.1,36.5-74.7
		c11.2-12.7,24.4-22.5,40.9-27.2c3.5-1,7.1-1.6,10.6-2.3C602.7,201,606.8,201,610.9,201z M701.5,332.1c-0.7,0.5-1.2,0.9-1.7,1.3
		c-6.3,5.5-12.7,10.9-18.9,16.4c-4.5,3.9-8,3.9-12.5,0.2c-3.4-2.9-6.7-5.8-10.1-8.7c-6.2-5.3-12.4-10.7-18.6-16.1
		c-0.7,0.6-1.2,1-1.7,1.4c-8.9,7.7-17.8,15.4-26.7,23.1c-4.9,4.2-8.2,4.1-13.1-0.1c-4.3-3.7-8.6-7.5-13-11.2
		c-5.1-4.4-10.2-8.8-15.3-13.2c-1.3,1.1-2.5,2.1-3.6,3.1c-8.4,7.3-16.8,14.5-25.2,21.7c-4.3,3.7-7.9,3.7-12.3-0.1
		c-5.5-4.7-11-9.5-16.4-14.2c-1.4-1.2-2.8-2.3-4.2-3.6c-0.3,0.1-0.5,0.2-0.8,0.2c0,3.5,0.1,6.9,0,10.4c-0.2,16.1,2,31.8,7.9,46.8
		c7.8,20.1,20.9,35.7,40,46.1c11.2,6.1,23.1,9.7,35.8,11.2c15.5,1.9,30.8,0.8,45.7-3.8c27.6-8.6,46.8-26.4,57.5-53.3
		c7.1-18.1,8.7-37,7.6-56.3C701.8,333.1,701.6,332.7,701.5,332.1z M674.2,334.8c0.4-0.2,0.6-0.2,0.7-0.3c2.3-2,4.5-4.2,7-5.9
		c3.8-2.5,5.4-5.5,3.7-10c-0.3-0.6-0.1-1.4-0.3-2c-4.1-23.3-12.2-45.1-25.8-64.7c-8.5-12.3-18.6-22.9-32.1-29.8
		c-15.3-7.8-30.5-7.8-45.8,0.1c-13.2,6.7-23.2,17-31.5,29c-15.2,21.7-23.8,46-27.2,72.1c-0.1,0.6,0.1,1.4,0.5,1.8
		c3.7,3.3,7.6,6.6,11.4,10c1.3-1.1,2.5-2.1,3.6-3.1c8.4-7.3,16.8-14.5,25.2-21.8c4.4-3.8,7.8-3.7,12.3,0.2
		c8.8,7.7,17.7,15.3,26.5,22.9c0.7,0.6,1.4,1.1,2.2,1.7c0.9-0.8,1.6-1.3,2.3-1.9c8.8-7.6,17.6-15.2,26.4-22.8
		c4.4-3.8,7.8-3.8,12.3,0c4.6,4,9.3,8,13.9,12.1C664.5,326.5,669.4,330.7,674.2,334.8z"/>
	<path class="st0" d="M615.4,225.5c3.1,1.3,6.1,2.2,8.9,3.7c12.1,6.3,21.1,16,28.9,27c9.2,13.1,15.5,27.5,20.2,42.7
		c1.3,4.2-0.6,8.1-4.5,9.6c-3.8,1.5-8.1-0.2-9.7-4.2c-2.6-6.5-4.6-13.2-7.5-19.5c-6.1-13.5-13.7-26-25.2-35.5
		c-4.2-3.5-9.2-6-14.1-8.5c-5.4-2.9-6.5-9.7-1.8-13.2C611.9,226.6,613.6,226.3,615.4,225.5z"/>
</g>
<g>
	<path class="st0" d="M191.9,710.7c2.9,0.6,5.8,1.1,8.7,1.8c14.7,3.7,27,11.6,37.6,22.2c15.9,15.8,26.9,34.7,34.4,55.6
		c3.4,9.6,5.6,19.6,8.3,29.4c0.2,0.7,0.4,1.4,0.5,2c2-1.1,3.8-2.3,5.8-2.9c4.1-1.1,8.4,1.6,9,5.8c4.1,27.5,3.6,54.7-6.9,81
		c-13.3,33.1-37.4,54.4-72,63.2c-30.5,7.8-60.2,5.2-88.3-9.8c-24.6-13.1-40.4-33.7-49.2-59.9c-5.1-15.1-7.2-30.7-6.7-46.5
		c0.3-8.9,1.1-17.9,2.1-26.7c0.8-7.1,7.3-9.6,13-5.2c0.5,0.4,1.1,0.8,1.9,1.4c0.6-2.6,1-4.9,1.5-7.2c6.3-27.8,17.5-53.1,36.5-74.7
		c11.2-12.7,24.4-22.5,40.9-27.2c3.5-1,7.1-1.6,10.6-2.3C183.7,710.7,187.8,710.7,191.9,710.7z M282.5,841.9
		c-0.7,0.5-1.2,0.9-1.7,1.3c-6.3,5.5-12.7,10.9-18.9,16.4c-4.5,3.9-8,3.9-12.5,0.2c-3.4-2.9-6.7-5.8-10.1-8.7
		c-6.2-5.3-12.4-10.7-18.6-16.1c-0.7,0.6-1.2,1-1.7,1.4c-8.9,7.7-17.8,15.4-26.7,23.1c-4.9,4.2-8.2,4.1-13.1-0.1
		c-4.3-3.7-8.6-7.5-13-11.2c-5.1-4.4-10.2-8.8-15.3-13.2c-1.3,1.1-2.5,2.1-3.6,3.1c-8.4,7.3-16.8,14.5-25.2,21.7
		c-4.3,3.7-7.9,3.7-12.3-0.1c-5.5-4.7-11-9.5-16.4-14.2c-1.4-1.2-2.8-2.3-4.2-3.6c-0.3,0.1-0.5,0.2-0.8,0.2c0,3.5,0.1,6.9,0,10.4
		c-0.2,16.1,2,31.8,7.9,46.8c7.8,20.1,20.9,35.7,40,46.1c11.2,6.1,23.1,9.7,35.8,11.2c15.5,1.9,30.8,0.8,45.7-3.8
		c27.6-8.6,46.8-26.4,57.5-53.3c7.1-18.1,8.7-37,7.6-56.3C282.8,842.9,282.7,842.4,282.5,841.9z M255.3,844.6
		c0.4-0.2,0.6-0.2,0.7-0.3c2.3-2,4.5-4.2,7-5.9c3.8-2.5,5.4-5.5,3.7-10c-0.3-0.6-0.1-1.4-0.3-2c-4.1-23.3-12.2-45.1-25.8-64.7
		c-8.5-12.3-18.6-22.9-32.1-29.8c-15.3-7.8-30.5-7.8-45.8,0.1c-13.2,6.7-23.2,17-31.5,29c-15.2,21.7-23.8,46-27.2,72.1
		c-0.1,0.6,0.1,1.4,0.5,1.8c3.7,3.3,7.6,6.6,11.4,10c1.3-1.1,2.5-2.1,3.6-3.1c8.4-7.3,16.8-14.5,25.2-21.8c4.4-3.8,7.8-3.7,12.3,0.2
		c8.8,7.7,17.7,15.3,26.5,22.9c0.7,0.6,1.4,1.1,2.2,1.7c0.9-0.8,1.6-1.3,2.3-1.9c8.8-7.6,17.6-15.2,26.4-22.8
		c4.4-3.8,7.8-3.8,12.3,0c4.6,4,9.3,8,13.9,12.1C245.6,836.2,250.5,840.5,255.3,844.6z"/>
	<path class="st0" d="M196.5,735.2c3.1,1.3,6.1,2.2,8.9,3.7c12.1,6.3,21.1,16,28.9,27c9.2,13.1,15.5,27.5,20.2,42.7
		c1.3,4.2-0.6,8.1-4.5,9.6c-3.8,1.5-8.1-0.2-9.7-4.2c-2.6-6.5-4.6-13.2-7.5-19.5c-6.1-13.5-13.7-26-25.2-35.5
		c-4.2-3.5-9.2-6-14.1-8.5c-5.4-2.9-6.5-9.7-1.8-13.2C193,736.4,194.7,736,196.5,735.2z"/>
</g>
</svg>
