<?xml version="1.0" encoding="utf-8"?>
<!-- Generator: Adobe Illustrator 23.0.3, SVG Export Plug-In . SVG Version: 6.00 Build 0)  -->
<svg version="1.1" id="圖層_1" xmlns="http://www.w3.org/2000/svg" xmlns:xlink="http://www.w3.org/1999/xlink" x="0px" y="0px"
	 viewBox="0 0 1400 588.3" style="enable-background:new 0 0 1400 588.3;" xml:space="preserve">
<style type="text/css">
	.st0{fill:#F4C887;}
</style>
<g>
	<path class="st0" d="M72.6,406.6c-2,2.6-3.3,5.9-3.3,8.6v123.3c0.7,17.8-3.3,30.3-11.9,38.2c-8.6,7.9-22.4,11.9-42.8,12.5H-48
		c-20.4,0.7-34.9-3.3-43.5-11.9c-9.2-8.6-13.8-21.1-13.8-38.9V66.5c0-21.1,5.3-36.9,15.8-48.1C-79,7.9-61.9,1.9-38.8,1.9h207
		c95.6,0,162.8,17.1,202.3,51.4c39.5,34.3,59.3,83.7,59.3,149c0,64.6-19.8,114.7-59.3,149c-39.5,34.3-106.8,51.4-202.3,51.4H82.5
		C77.8,402.7,74.5,404,72.6,406.6z M226.8,167.4c-11.2-5.9-30.3-9.2-56-9.2H82.5c-4.6,0-7.9,1.3-9.9,4.6c-2,2.6-3.3,5.9-3.3,8.6V234
		c0,3.3,1.3,5.9,3.3,8.6c2,2.6,5.3,4.6,9.9,4.6h88.3c25.7,0,44.8-3.3,56-10.5c11.9-6.6,17.8-17.8,17.8-34.3
		C244.6,185.8,238.7,174,226.8,167.4z"/>
	<path class="st0" d="M762,11.8c8.6,7.9,16.5,22.4,23.1,43.5l154.2,442.9c5.9,15.2,9.2,28.3,11.9,40.2c0,17.8-4,30.3-11.9,38.2
		c-8.6,7.9-23.1,11.9-42.8,12.5H847c-20.4,0.7-34.9-3.3-43.5-11.9c-9.2-8.6-15.8-21.1-21.1-38.9l-17.1-48.1H582.7l-16.5,48.1
		c-5.3,17.8-12.5,30.3-21.1,38.9c-8.6,8.6-23.1,12.5-43.5,11.9h-49.4c-20.4-0.7-34.3-4.6-42.8-12.5c-8.6-7.9-12.5-20.4-11.9-38.2
		c2-11.9,5.9-25,11.2-40.2L563.6,55.3c6.6-21.1,13.8-35.6,23.1-43.5c8.6-8.6,24.4-12.5,48.1-11.9h78.4C737-0.7,753.4,3.3,762,11.8z
		 M636.8,334.1h74.5l-36.9-106.8L636.8,334.1z"/>
	<path class="st0" d="M1502.2,538.5c0.7,17.8-3.3,30.3-11.9,38.2c-8.6,7.9-22.4,11.9-42.8,12.5h-52.1c-20.4,0.7-34.3-2.6-42.2-9.9
		c-7.3-7.3-13.2-13.2-17.8-19.1l-203.7-263v241.2c0,17.8-4,30.3-12.5,38.2c-7.9,7.9-22.4,11.9-42.2,12.5h-52.7
		c-19.8,0.7-34.3-3.3-42.8-11.9c-9.2-8.6-13.8-21.1-13.8-38.9V57.3c-0.7-20.4,3.3-34.3,11.9-42.2c7.9-8.6,22.4-12.5,42.8-13.2h46.8
		c23.7,0,38.9,3.3,46.8,11.2c7.9,7.9,13.8,13.8,17.1,18.5l205,266.3V57.3c-0.7-20.4,3.3-34.3,11.9-42.2c8.6-8.6,22.4-12.5,42.8-13.2
		h46.8c23.7,0,40.2,4,48.8,12.5c8.6,7.9,13.2,22.4,13.8,42.8V538.5z"/>
</g>
</svg>
